<svg width="245" height="204" viewBox="0 0 245 204" fill="none" xmlns="http://www.w3.org/2000/svg">
<circle cx="122.5" cy="88.5" r="88.5" fill="#FF9D00"/>
<ellipse cx="82" cy="139" rx="10" ry="9" fill="black"/>
<ellipse cx="158" cy="139" rx="10" ry="9" fill="black"/>
<path d="M122.5 204L132.459 162H112.541L122.5 204Z" fill="#FFC831"/>
<path d="M215 139C237.167 133.167 268.2 102.6 215 27L177 147.5L215 139Z" fill="#FF9D00"/>
<path d="M29.3745 141C7.20779 135.167 -23.8255 104.6 29.3745 29L67.3745 149.5L29.3745 141Z" fill="#FF9D00"/>
<path d="M43.2344 85.0547V105H36.4844V79.6406H42.8125L43.2344 85.0547ZM42.25 91.4297H40.4219C40.4219 89.5547 40.6641 87.8672 41.1484 86.3672C41.6328 84.8516 42.3125 83.5625 43.1875 82.5C44.0625 81.4219 45.1016 80.6016 46.3047 80.0391C47.5234 79.4609 48.8828 79.1719 50.3828 79.1719C51.5703 79.1719 52.6562 79.3438 53.6406 79.6875C54.625 80.0312 55.4688 80.5781 56.1719 81.3281C56.8906 82.0781 57.4375 83.0703 57.8125 84.3047C58.2031 85.5391 58.3984 87.0469 58.3984 88.8281V105H51.6016V88.8047C51.6016 87.6797 51.4453 86.8047 51.1328 86.1797C50.8203 85.5547 50.3594 85.1172 49.75 84.8672C49.1562 84.6016 48.4219 84.4688 47.5469 84.4688C46.6406 84.4688 45.8516 84.6484 45.1797 85.0078C44.5234 85.3672 43.9766 85.8672 43.5391 86.5078C43.1172 87.1328 42.7969 87.8672 42.5781 88.7109C42.3594 89.5547 42.25 90.4609 42.25 91.4297ZM77.2188 99.2812V87.9844C77.2188 87.1719 77.0859 86.4766 76.8203 85.8984C76.5547 85.3047 76.1406 84.8438 75.5781 84.5156C75.0312 84.1875 74.3203 84.0234 73.4453 84.0234C72.6953 84.0234 72.0469 84.1562 71.5 84.4219C70.9531 84.6719 70.5312 85.0391 70.2344 85.5234C69.9375 85.9922 69.7891 86.5469 69.7891 87.1875H63.0391C63.0391 86.1094 63.2891 85.0859 63.7891 84.1172C64.2891 83.1484 65.0156 82.2969 65.9688 81.5625C66.9219 80.8125 68.0547 80.2266 69.3672 79.8047C70.6953 79.3828 72.1797 79.1719 73.8203 79.1719C75.7891 79.1719 77.5391 79.5 79.0703 80.1562C80.6016 80.8125 81.8047 81.7969 82.6797 83.1094C83.5703 84.4219 84.0156 86.0625 84.0156 88.0312V98.8828C84.0156 100.273 84.1016 101.414 84.2734 102.305C84.4453 103.18 84.6953 103.945 85.0234 104.602V105H78.2031C77.875 104.312 77.625 103.453 77.4531 102.422C77.2969 101.375 77.2188 100.328 77.2188 99.2812ZM78.1094 89.5547L78.1562 93.375H74.3828C73.4922 93.375 72.7188 93.4766 72.0625 93.6797C71.4062 93.8828 70.8672 94.1719 70.4453 94.5469C70.0234 94.9062 69.7109 95.3281 69.5078 95.8125C69.3203 96.2969 69.2266 96.8281 69.2266 97.4062C69.2266 97.9844 69.3594 98.5078 69.625 98.9766C69.8906 99.4297 70.2734 99.7891 70.7734 100.055C71.2734 100.305 71.8594 100.43 72.5312 100.43C73.5469 100.43 74.4297 100.227 75.1797 99.8203C75.9297 99.4141 76.5078 98.9141 76.9141 98.3203C77.3359 97.7266 77.5547 97.1641 77.5703 96.6328L79.3516 99.4922C79.1016 100.133 78.7578 100.797 78.3203 101.484C77.8984 102.172 77.3594 102.82 76.7031 103.43C76.0469 104.023 75.2578 104.516 74.3359 104.906C73.4141 105.281 72.3203 105.469 71.0547 105.469C69.4453 105.469 67.9844 105.148 66.6719 104.508C65.375 103.852 64.3438 102.953 63.5781 101.812C62.8281 100.656 62.4531 99.3438 62.4531 97.875C62.4531 96.5469 62.7031 95.3672 63.2031 94.3359C63.7031 93.3047 64.4375 92.4375 65.4062 91.7344C66.3906 91.0156 67.6172 90.4766 69.0859 90.1172C70.5547 89.7422 72.2578 89.5547 74.1953 89.5547H78.1094ZM99.6953 100.195C100.523 100.195 101.258 100.039 101.898 99.7266C102.539 99.3984 103.039 98.9453 103.398 98.3672C103.773 97.7734 103.969 97.0781 103.984 96.2812H110.336C110.32 98.0625 109.844 99.6484 108.906 101.039C107.969 102.414 106.711 103.5 105.133 104.297C103.555 105.078 101.789 105.469 99.8359 105.469C97.8672 105.469 96.1484 105.141 94.6797 104.484C93.2266 103.828 92.0156 102.922 91.0469 101.766C90.0781 100.594 89.3516 99.2344 88.8672 97.6875C88.3828 96.125 88.1406 94.4531 88.1406 92.6719V91.9922C88.1406 90.1953 88.3828 88.5234 88.8672 86.9766C89.3516 85.4141 90.0781 84.0547 91.0469 82.8984C92.0156 81.7266 93.2266 80.8125 94.6797 80.1562C96.1328 79.5 97.8359 79.1719 99.7891 79.1719C101.867 79.1719 103.688 79.5703 105.25 80.3672C106.828 81.1641 108.062 82.3047 108.953 83.7891C109.859 85.2578 110.32 87 110.336 89.0156H103.984C103.969 88.1719 103.789 87.4062 103.445 86.7188C103.117 86.0312 102.633 85.4844 101.992 85.0781C101.367 84.6562 100.594 84.4453 99.6719 84.4453C98.6875 84.4453 97.8828 84.6562 97.2578 85.0781C96.6328 85.4844 96.1484 86.0469 95.8047 86.7656C95.4609 87.4688 95.2188 88.2734 95.0781 89.1797C94.9531 90.0703 94.8906 91.0078 94.8906 91.9922V92.6719C94.8906 93.6562 94.9531 94.6016 95.0781 95.5078C95.2031 96.4141 95.4375 97.2188 95.7812 97.9219C96.1406 98.625 96.6328 99.1797 97.2578 99.5859C97.8828 99.9922 98.6953 100.195 99.6953 100.195ZM124.727 100.195C125.555 100.195 126.289 100.039 126.93 99.7266C127.57 99.3984 128.07 98.9453 128.43 98.3672C128.805 97.7734 129 97.0781 129.016 96.2812H135.367C135.352 98.0625 134.875 99.6484 133.938 101.039C133 102.414 131.742 103.5 130.164 104.297C128.586 105.078 126.82 105.469 124.867 105.469C122.898 105.469 121.18 105.141 119.711 104.484C118.258 103.828 117.047 102.922 116.078 101.766C115.109 100.594 114.383 99.2344 113.898 97.6875C113.414 96.125 113.172 94.4531 113.172 92.6719V91.9922C113.172 90.1953 113.414 88.5234 113.898 86.9766C114.383 85.4141 115.109 84.0547 116.078 82.8984C117.047 81.7266 118.258 80.8125 119.711 80.1562C121.164 79.5 122.867 79.1719 124.82 79.1719C126.898 79.1719 128.719 79.5703 130.281 80.3672C131.859 81.1641 133.094 82.3047 133.984 83.7891C134.891 85.2578 135.352 87 135.367 89.0156H129.016C129 88.1719 128.82 87.4062 128.477 86.7188C128.148 86.0312 127.664 85.4844 127.023 85.0781C126.398 84.6562 125.625 84.4453 124.703 84.4453C123.719 84.4453 122.914 84.6562 122.289 85.0781C121.664 85.4844 121.18 86.0469 120.836 86.7656C120.492 87.4688 120.25 88.2734 120.109 89.1797C119.984 90.0703 119.922 91.0078 119.922 91.9922V92.6719C119.922 93.6562 119.984 94.6016 120.109 95.5078C120.234 96.4141 120.469 97.2188 120.812 97.9219C121.172 98.625 121.664 99.1797 122.289 99.5859C122.914 99.9922 123.727 100.195 124.727 100.195ZM150.953 105.469C148.984 105.469 147.219 105.156 145.656 104.531C144.094 103.891 142.766 103.008 141.672 101.883C140.594 100.758 139.766 99.4531 139.188 97.9688C138.609 96.4688 138.32 94.875 138.32 93.1875V92.25C138.32 90.3281 138.594 88.5703 139.141 86.9766C139.688 85.3828 140.469 84 141.484 82.8281C142.516 81.6562 143.766 80.7578 145.234 80.1328C146.703 79.4922 148.359 79.1719 150.203 79.1719C152 79.1719 153.594 79.4688 154.984 80.0625C156.375 80.6562 157.539 81.5 158.477 82.5938C159.43 83.6875 160.148 85 160.633 86.5312C161.117 88.0469 161.359 89.7344 161.359 91.5938V94.4062H141.203V89.9062H154.727V89.3906C154.727 88.4531 154.555 87.6172 154.211 86.8828C153.883 86.1328 153.383 85.5391 152.711 85.1016C152.039 84.6641 151.18 84.4453 150.133 84.4453C149.242 84.4453 148.477 84.6406 147.836 85.0312C147.195 85.4219 146.672 85.9688 146.266 86.6719C145.875 87.375 145.578 88.2031 145.375 89.1562C145.188 90.0938 145.094 91.125 145.094 92.25V93.1875C145.094 94.2031 145.234 95.1406 145.516 96C145.812 96.8594 146.227 97.6016 146.758 98.2266C147.305 98.8516 147.961 99.3359 148.727 99.6797C149.508 100.023 150.391 100.195 151.375 100.195C152.594 100.195 153.727 99.9609 154.773 99.4922C155.836 99.0078 156.75 98.2812 157.516 97.3125L160.797 100.875C160.266 101.641 159.539 102.375 158.617 103.078C157.711 103.781 156.617 104.359 155.336 104.812C154.055 105.25 152.594 105.469 150.953 105.469ZM171.812 85.0547V105H165.062V79.6406H171.391L171.812 85.0547ZM170.828 91.4297H169C169 89.5547 169.242 87.8672 169.727 86.3672C170.211 84.8516 170.891 83.5625 171.766 82.5C172.641 81.4219 173.68 80.6016 174.883 80.0391C176.102 79.4609 177.461 79.1719 178.961 79.1719C180.148 79.1719 181.234 79.3438 182.219 79.6875C183.203 80.0312 184.047 80.5781 184.75 81.3281C185.469 82.0781 186.016 83.0703 186.391 84.3047C186.781 85.5391 186.977 87.0469 186.977 88.8281V105H180.18V88.8047C180.18 87.6797 180.023 86.8047 179.711 86.1797C179.398 85.5547 178.938 85.1172 178.328 84.8672C177.734 84.6016 177 84.4688 176.125 84.4688C175.219 84.4688 174.43 84.6484 173.758 85.0078C173.102 85.3672 172.555 85.8672 172.117 86.5078C171.695 87.1328 171.375 87.8672 171.156 88.7109C170.938 89.5547 170.828 90.4609 170.828 91.4297ZM204.531 79.6406V84.4219H189.766V79.6406H204.531ZM193.422 73.3828H200.172V97.3594C200.172 98.0938 200.266 98.6562 200.453 99.0469C200.656 99.4375 200.953 99.7109 201.344 99.8672C201.734 100.008 202.227 100.078 202.82 100.078C203.242 100.078 203.617 100.062 203.945 100.031C204.289 99.9844 204.578 99.9375 204.812 99.8906L204.836 104.859C204.258 105.047 203.633 105.195 202.961 105.305C202.289 105.414 201.547 105.469 200.734 105.469C199.25 105.469 197.953 105.227 196.844 104.742C195.75 104.242 194.906 103.445 194.312 102.352C193.719 101.258 193.422 99.8203 193.422 98.0391V73.3828Z" fill="white"/>
</svg>
